<?xml version="1.0" encoding="UTF-8" standalone="no"?>
<svg
   xmlns:dc="http://purl.org/dc/elements/1.1/"
   xmlns:cc="http://creativecommons.org/ns#"
   xmlns:rdf="http://www.w3.org/1999/02/22-rdf-syntax-ns#"
   xmlns:svg="http://www.w3.org/2000/svg"
   xmlns="http://www.w3.org/2000/svg"
   xmlns:xlink="http://www.w3.org/1999/xlink"
   id="svg8"
   version="1.1"
   viewBox="0 0 38.099999 38.100001"
   height="144"
   width="144">
  <defs
     id="defs2">
    <linearGradient
       id="linearGradient51">
      <stop
         id="stop47"
         offset="0"
         style="stop-color:#00d1b2;stop-opacity:1" />
      <stop
         id="stop49"
         offset="1"
         style="stop-color:#3273dc;stop-opacity:1" />
    </linearGradient>
    <linearGradient
       gradientUnits="userSpaceOnUse"
       y2="290.18661"
       x2="31.286585"
       y1="266.37292"
       x1="7.4728856"
       id="linearGradient53"
       xlink:href="#linearGradient51" />
  </defs>
  <metadata
     id="metadata5">
    <rdf:RDF>
      <cc:Work
         rdf:about="">
        <dc:format>image/svg+xml</dc:format>
        <dc:type
           rdf:resource="http://purl.org/dc/dcmitype/StillImage" />
        <dc:title></dc:title>
      </cc:Work>
    </rdf:RDF>
  </metadata>
  <g
     transform="translate(0,-258.89998)"
     id="layer1">
    <circle
       r="19.049999"
       cy="277.94998"
       cx="19.049999"
       id="path26"
       style="opacity:1;fill:url(#linearGradient53);fill-opacity:1;stroke:none;stroke-width:3.17499995;stroke-linecap:round;stroke-linejoin:miter;stroke-miterlimit:4;stroke-dasharray:none;stroke-dashoffset:0;stroke-opacity:1;paint-order:normal" />
    <path
       id="path862"
       d="m 13.429619,270.16713 v 15.35875 c -0.581421,-0.34822 -1.335078,-0.54123 -2.116667,-0.54208 -1.7535041,0 -3.175,0.94766 -3.175,2.11667 0,1.169 1.4214959,2.11666 3.175,2.11666 1.753504,0 3.175,-0.94766 3.175,-2.11666 v -13.75834 l 11.641666,-2.05274 v 11.81053 c -0.58142,-0.34822 -1.335077,-0.54124 -2.116666,-0.54209 -1.753504,0 -3.175,0.94767 -3.175,2.11667 0,1.169 1.421496,2.11667 3.175,2.11667 1.753504,0 3.175,-0.94767 3.175,-2.11667 v -16.93333 z"
       style="opacity:1;fill:#3273dc;fill-opacity:1;stroke:none;stroke-width:3.72464776;stroke-linecap:round;stroke-linejoin:miter;stroke-miterlimit:4;stroke-dasharray:none;stroke-dashoffset:0;stroke-opacity:1;paint-order:normal" />
    <path
       style="opacity:1;fill:#ffffff;fill-opacity:1;stroke:none;stroke-width:3.72464776;stroke-linecap:round;stroke-linejoin:miter;stroke-miterlimit:4;stroke-dasharray:none;stroke-dashoffset:0;stroke-opacity:1;paint-order:normal"
       d="m 13.429619,269.63796 v 15.35875 c -0.581421,-0.34822 -1.335078,-0.54123 -2.116667,-0.54208 -1.7535041,0 -3.175,0.94766 -3.175,2.11667 0,1.169 1.4214959,2.11666 3.175,2.11666 1.753504,0 3.175,-0.94766 3.175,-2.11666 v -13.75834 l 11.641666,-2.05274 v 11.81053 c -0.58142,-0.34822 -1.335077,-0.54124 -2.116666,-0.54209 -1.753504,0 -3.175,0.94767 -3.175,2.11667 0,1.169 1.421496,2.11667 3.175,2.11667 1.753504,0 3.175,-0.94767 3.175,-2.11667 V 267.212 Z"
       id="path878" />
  </g>
</svg>
